{"title":"Anne of the Thousand Days [1969] 720p BRRip H264 AC3 - CODY","uid":10743802,"size":2169620148,"categoryP":"video","categoryS":"hd___movies","magnet":"?xt=urn:btih:40bb4829763f13dda866334e750780121475be1b&amp;dn=Anne+of+the+Thousand+Days+%5B1969%5D+720p+BRRip+H264+AC3+-+CODY&amp;tr=udp%3A%2F%2Ftracker.openbittorrent.com%3A80&amp;tr=udp%3A%2F%2Fopen.demonii.com%3A1337&amp;tr=udp%3A%2F%2Ftracker.coppersurfer.tk%3A6969&amp;tr=udp%3A%2F%2Fexodus.desync.com%3A6969","seeders":0,"leechers":3,"uploader":"CODYBOSS1969","files":7,"time":1407791147,"description":"General\nComplete name                            : Anne of the Thousand Days [1969] 720p BRRip H264 AC3 - CODY.mp4\nFormat                                   : MPEG-4\nFormat profile                           : Base Media\nCodec ID                                 : isom\nFile size                                : 2.02 GiB\nDuration                                 : 2h 25mn\nOverall bit rate mode                    : Variable\nOverall bit rate                         : 1 992 Kbps\nEncoded date                             : UTC 2014-06-08 11:43:56\n\nVideo\nID                                       : 1\nFormat                                   : AVC\nFormat/Info                              : Advanced Video Codec\nFormat profile                           : &lt;a class=&quot;__cf_email__&quot; href=&quot;/cdn-cgi/l/email-protection&quot; data-cfemail=&quot;9dd5f4faf5ddd1a9b3ac&quot;&gt;[email&amp;#160;protected]&lt;/a&gt;&lt;script cf-hash='f9e31' type=&quot;text/javascript&quot;&gt;\n/* &lt;![CDATA[ */!function(){try{var t=&quot;currentScript&quot;in document?document.currentScript:function(){for(var t=document.getElementsByTagName(&quot;script&quot;),e=t.length;e--;)if(t[e].getAttribute(&quot;cf-hash&quot;))return t[e]}();if(t&amp;&amp;t.previousSibling){var e,r,n,i,c=t.previousSibling,a=c.getAttribute(&quot;data-cfemail&quot;);if(a){for(e=&quot;&quot;,r=parseInt(a.substr(0,2),16),n=2;a.length-n;n+=2)i=parseInt(a.substr(n,2),16)^r,e+=String.fromCharCode(i);e=document.createTextNode(e),c.parentNode.replaceChild(e,c)}}}catch(u){}}();/* ]]&gt; */&lt;/script&gt;\nFormat settings, CABAC                   : Yes\nFormat settings, ReFrames                : 8 frames\nCodec ID                                 : avc1\nCodec ID/Info                            : Advanced Video Coding\nDuration                                 : 2h 25mn\nBit rate mode                            : Variable\nBit rate                                 : 1 670 Kbps\nMaximum bit rate                         : 20.0 Mbps\nWidth                                    : 1 280 pixels\nHeight                                   : 544 pixels\nDisplay aspect ratio                     : 2.35:1\nFrame rate mode                          : Constant\nFrame rate                               : 24.000 fps\nColor space                              : YUV\nChroma subsampling                       : 4:2:0\nBit depth                                : 8 bits\nScan type                                : Progressive\nBits/(Pixel*Frame)                       : 0.100\nStream size                              : 1.69 GiB (84%)\nWriting library                          : x264 core 130 r2273 b3065e6\nEncoding settings                        : rc=2pass\nColor primaries                          : Generic film\nTransfer characteristics                 : BT.709\nMatrix coefficients                      : BT.709\n\nAudio\nID                                       : 2\nFormat                                   : AC-3\nFormat/Info                              : Audio Coding 3\nMode extension                           : CM (complete main)\nFormat settings, Endianness              : Big\nCodec ID                                 : ac-3\nDuration                                 : 2h 25mn\nBit rate mode                            : Constant\nBit rate                                 : 320 Kbps\nChannel(s)                               : 2 channels\nChannel positions                        : Front: L R\nSampling rate                            : 48.0 KHz\nBit depth                                : 16 bits\nCompression mode                         : Lossy\nStream size                              : 332 MiB (16%)\n\nAudio language                           : English\n\nIMDB link                                : http://www.imdb.com/title/tt0064030/\n\nSubtitles included                       : Romanian\n\nPlease seed at least 1,5:1. This way this torrent has a chance to survive !\n\nThanks. Enjoy !!\t\t                            \t","torrent":{"xt":"urn:btih:40bb4829763f13dda866334e750780121475be1b","amp;dn":"Anne+of+the+Thousand+Days+%5B1969%5D+720p+BRRip+H264+AC3+-+CODY","amp;tr":["udp%3A%2F%2Ftracker.openbittorrent.com%3A80","udp%3A%2F%2Fopen.demonii.com%3A1337","udp%3A%2F%2Ftracker.coppersurfer.tk%3A6969","udp%3A%2F%2Fexodus.desync.com%3A6969"],"infoHash":"40bb4829763f13dda866334e750780121475be1b","infoHashBuffer":{"type":"Buffer","data":[64,187,72,41,118,63,19,221,168,102,51,78,117,7,128,18,20,117,190,27]},"announce":[],"urlList":[]}}